<svg width="1043" height="140" viewBox="0 0 1043 140" fill="none" xmlns="http://www.w3.org/2000/svg">
<path d="M24.3975 25.8975H55.8484C62.2969 25.8975 67.838 26.8695 72.4717 28.8133C77.144 30.7572 80.7351 33.6341 83.245 37.4441C85.7549 41.2541 87.0098 45.9388 87.0098 51.4983C87.0098 56.0469 86.2375 59.9541 84.693 63.2198C83.187 66.4466 81.044 69.1486 78.2638 71.3257C75.5222 73.464 72.2979 75.1746 68.591 76.4575L63.0885 79.3733H35.7499L35.6341 65.7274H55.9643C59.0148 65.7274 61.544 65.1831 63.5519 64.0945C65.5598 63.006 67.0658 61.4898 68.0697 59.5459C69.1123 57.602 69.6336 55.3471 69.6336 52.7812C69.6336 50.0598 69.1316 47.7077 68.1276 45.725C67.1237 43.7422 65.5984 42.226 63.5519 41.1763C61.5054 40.1266 58.9375 39.6018 55.8484 39.6018H41.7737V110.806H24.3975V25.8975ZM71.545 110.806L52.3153 72.9586L70.6762 72.8419L90.1375 109.989V110.806H71.545Z" fill="#012F02"/>
<path d="M174.771 97.1597V110.806H129.883V97.1597H174.771ZM135.559 25.8975V110.806H118.183V25.8975H135.559ZM168.921 60.4789V73.775H129.883V60.4789H168.921ZM174.713 25.8975V39.6018H129.883V25.8975H174.713Z" fill="#012F02"/>
<path d="M236.99 40.4182L214.053 110.806H195.576L226.912 25.8975H238.67L236.99 40.4182ZM256.046 110.806L233.051 40.4182L231.198 25.8975H243.072L274.58 110.806H256.046ZM255.003 79.1984V92.9027H210.462V79.1984H255.003Z" fill="#012F02"/>
<path d="M354.407 97.1597V110.806H311.951V97.1597H354.407ZM317.569 25.8975V110.806H300.193V25.8975H317.569Z" fill="#012F02"/>
<path d="M438.751 97.1597V110.806H393.862V97.1597H438.751ZM399.539 25.8975V110.806H382.162V25.8975H399.539ZM432.901 60.4789V73.775H393.862V60.4789H432.901ZM438.693 25.8975V39.6018H393.862V25.8975H438.693Z" fill="#012F02"/>
<path d="M510.584 88.5873C510.584 87.0711 510.353 85.7104 509.889 84.5052C509.465 83.2611 508.654 82.1336 507.457 81.1228C506.26 80.0731 504.58 79.0429 502.418 78.0321C500.255 77.0213 497.456 75.9716 494.019 74.883C490.196 73.6389 486.567 72.2393 483.13 70.6843C479.732 69.1292 476.72 67.3214 474.094 65.2609C471.507 63.1615 469.461 60.7316 467.955 57.9714C466.487 55.2111 465.754 52.0037 465.754 48.3492C465.754 44.8114 466.526 41.604 468.071 38.7271C469.615 35.8113 471.777 33.3231 474.558 31.2626C477.338 29.1632 480.62 27.5498 484.404 26.4224C488.227 25.2949 492.417 24.7312 496.973 24.7312C503.19 24.7312 508.615 25.8586 513.249 28.1135C517.882 30.3684 521.473 33.4592 524.022 37.3858C526.609 41.3124 527.903 45.8027 527.903 50.8568H510.642C510.642 48.3686 510.121 46.1915 509.078 44.3254C508.074 42.4204 506.53 40.9236 504.445 39.8351C502.398 38.7465 499.811 38.2022 496.683 38.2022C493.671 38.2022 491.162 38.6687 489.154 39.6018C487.146 40.496 485.64 41.7206 484.636 43.2757C483.632 44.7919 483.13 46.5025 483.13 48.4075C483.13 49.846 483.477 51.1484 484.172 52.3147C484.906 53.481 485.987 54.5696 487.416 55.5804C488.845 56.5912 490.602 57.5437 492.687 58.4379C494.772 59.3321 497.185 60.2068 499.927 61.0621C504.522 62.4617 508.557 64.0362 512.032 65.7857C515.546 67.5352 518.481 69.4985 520.836 71.6756C523.192 73.8528 524.968 76.3215 526.165 79.0818C527.362 81.8421 527.961 84.9717 527.961 88.4706C527.961 92.164 527.246 95.4686 525.818 98.3844C524.389 101.3 522.323 103.769 519.62 105.791C516.917 107.812 513.693 109.348 509.947 110.397C506.202 111.447 502.012 111.972 497.378 111.972C493.208 111.972 489.096 111.428 485.041 110.339C480.987 109.212 477.299 107.521 473.978 105.266C470.696 103.011 468.071 100.134 466.101 96.6349C464.132 93.1359 463.147 88.9955 463.147 84.2136H480.581C480.581 86.8572 480.987 89.0927 481.798 90.9199C482.609 92.7472 483.748 94.2245 485.215 95.3519C486.721 96.4794 488.497 97.2958 490.544 97.8012C492.629 98.3066 494.907 98.5593 497.378 98.5593C500.39 98.5593 502.862 98.1317 504.792 97.2764C506.762 96.4211 508.21 95.2353 509.136 93.7191C510.102 92.2029 510.584 90.4923 510.584 88.5873Z" fill="#012F02"/>
<path d="M595.276 25.8975V110.806H577.958V25.8975H595.276ZM621.225 25.8975V39.6018H552.415V25.8975H621.225Z" fill="#012F02"/>
<path d="M676.956 40.4182L654.019 110.806H635.543L666.878 25.8975H678.636L676.956 40.4182ZM696.012 110.806L673.017 40.4182L671.164 25.8975H683.038L714.547 110.806H696.012ZM694.969 79.1984V92.9027H650.428V79.1984H694.969Z" fill="#012F02"/>
<path d="M770.683 25.8975V110.806H753.365V25.8975H770.683ZM796.632 25.8975V39.6018H727.822V25.8975H796.632Z" fill="#012F02"/>
<path d="M842.806 25.8975V110.806H825.488V25.8975H842.806Z" fill="#012F02"/>
<path d="M894.251 25.8975V110.806H876.875V25.8975H894.251ZM927.846 62.1701V75.8161H889.502V62.1701H927.846ZM931.9 25.8975V39.6018H889.502V25.8975H931.9Z" fill="#012F02"/>
<path d="M971.356 25.8975L988.964 64.6194L1006.57 25.8975H1025.51L997.767 79.8982V110.806H980.16V79.8982L952.358 25.8975H971.356Z" fill="#012F02"/>
</svg>
