<svg width="1032" height="1032" viewBox="0 0 1032 1032" fill="none" xmlns="http://www.w3.org/2000/svg">
<rect width="1024" height="1024" fill="#012F02"/>
<path fill-rule="evenodd" clip-rule="evenodd" d="M547.745 125.843C555.669 124.905 562.842 126.697 569.264 131.223C668.871 211.866 768.017 293.078 866.695 374.855C872.462 386.367 870.156 395.845 859.778 403.291C848.597 407.028 838.861 404.722 830.573 396.374C829.036 471.682 828.524 547.007 829.036 622.329C860.965 617.927 884.79 629.712 900.511 657.683C908.764 677.988 907.227 697.458 895.9 716.093C810.106 806.031 706.351 865.721 584.635 895.166C551.551 903.021 518.248 904.558 484.723 899.777C458.919 894.591 433.691 886.868 409.405 876.721L337.161 843.673C332.287 844.699 327.613 846.516 323.327 849.053C299.49 864.305 275.406 879.165 251.083 893.629C238.529 896.447 229.563 892.09 224.183 880.564C192.011 820.832 160.243 760.884 128.882 700.722C126.531 690.32 129.86 682.378 138.874 676.897C175.594 660.594 209.922 640.612 241.86 616.949C253.793 610.345 265.836 603.939 277.982 597.735C279.262 530.61 279.007 463.489 277.214 396.374C266.382 406.594 254.853 407.62 242.629 399.448C237.018 392.398 235.993 384.712 239.554 376.392C311.588 316.136 384.091 256.443 457.055 197.318C487.034 173.177 517.266 149.35 547.745 125.843ZM552.356 171.956C631.732 234.902 710.639 298.438 789.071 362.558C791.12 455.285 791.12 548.047 789.071 640.774C748.322 662.655 708.871 685.969 670.713 710.713C677.371 689.438 670.967 673.298 651.5 662.294L649.963 485.526C640.442 437.576 611.492 410.165 563.116 403.291C504.849 403.096 469.752 431.532 457.824 488.601C457.567 523.963 456.799 559.321 455.518 594.661C410.928 574.433 365.07 570.847 317.947 583.901C316.667 510.116 316.922 436.334 318.715 362.558C397.045 299.576 474.927 236.041 552.356 171.956ZM547.745 440.95C580.995 441.029 602.258 456.913 611.535 488.601C612.303 542.91 612.56 597.22 612.303 651.534C577.042 650.853 542.712 644.96 509.317 633.858C504.585 631.669 500.186 628.823 496.252 625.403C494.762 578.777 495.275 532.109 497.789 485.526C506.134 461.026 522.787 446.167 547.745 440.95ZM360.217 614.644C394.051 612.725 425.305 620.668 453.981 638.469C462.664 645.621 470.878 653.322 478.575 661.525C498.748 672.468 520.267 679.64 543.133 683.045C569.187 686.765 595.318 689.839 621.526 692.268C625.33 692.83 628.986 694.136 632.286 696.11C633.95 697.44 634.206 698.977 633.054 700.722C613.17 720.271 589.345 732.312 561.579 736.844C538.01 741.967 514.44 741.967 490.872 736.844C479.336 734.022 467.807 731.204 456.287 728.39C438.905 732.411 433.782 742.659 440.916 759.132C444.617 762.907 448.972 765.725 453.981 767.586C464.429 771.315 475.253 773.892 486.26 775.272C541.905 781.518 596.729 777.419 650.731 762.975C663.498 759.062 675.854 753.914 687.622 747.604C735.651 715.644 785.428 686.394 836.721 659.988C853.213 658.802 863.459 666.232 867.463 682.276C866.83 687.395 865.038 692.006 862.084 696.11C780.88 777.851 683.785 831.905 570.801 858.275C545.883 863.894 520.776 865.431 495.483 862.887C473.902 858.903 452.785 852.723 432.462 844.441C406.813 833.85 381.678 822.052 357.143 809.088C347.575 805.465 337.84 804.696 327.938 806.782C300.083 758.78 273.432 710.09 248.008 660.757C281.528 635.754 318.932 620.383 360.217 614.644ZM209.581 683.814C211.613 683.552 213.407 684.064 214.961 685.351C240.011 731.099 264.861 776.956 289.51 822.922C277.375 831.98 264.807 840.444 251.851 848.284C225.572 800.34 199.696 752.176 174.227 703.796C185.784 696.74 197.575 690.075 209.581 683.814Z" fill="white"/>
</svg>
